<?xml version="1.0" encoding="UTF-8" standalone="no"?>
<svg viewBox="0 0 50 50"
 xmlns="http://www.w3.org/2000/svg" xmlns:xlink="http://www.w3.org/1999/xlink"  version="1.2" baseProfile="tiny">
<title>Qt SVG Document</title>
<desc>Generated with Qt</desc>
<defs>
</defs>
<g fill="none" stroke="black" stroke-width="1" fill-rule="evenodd" stroke-linecap="square" stroke-linejoin="bevel" >

<g fill="#000000" fill-opacity="1" stroke="none" transform="matrix(2.5,0,0,2.5,37.7942,44.9545)"
font-family="JetBrains Mono" font-size="10" font-weight="400" font-style="normal" 
opacity="0" >
<rect x="-15.1177" y="-17.9818" width="20" height="20"/>
</g>

<g fill="#db4439" fill-opacity="1" stroke="none" transform="matrix(1.86247,0,0,1.86247,1.24455,11.8461)"
font-family="JetBrains Mono" font-size="10" font-weight="400" font-style="normal" 
>
<path vector-effect="none" fill-rule="nonzero" d="M22.2929,7 C22.294,12.1331 18.1331,16.2948 13,16.2948 C7.86692,16.2948 3.70604,12.1331 3.70711,7 C3.70604,1.86692 7.86692,-2.29482 13,-2.29482 C18.1331,-2.29482 22.294,1.86692 22.2929,7 "/>
</g>

<g fill="none" stroke="none" transform="matrix(1.03034,0,0,1.02562,416.367,-269.481)"
font-family="JetBrains Mono" font-size="10" font-weight="400" font-style="normal" 
>
<path vector-effect="none" fill-rule="nonzero" d="M-385.342,281.647 L-373.737,293.252"/>
</g>

<g fill="none" stroke="#eff0f1" stroke-opacity="1" stroke-width="3.33356" stroke-linecap="round" stroke-linejoin="miter" stroke-miterlimit="4" transform="matrix(1.03034,0,0,1.02562,416.367,-269.481)"
font-family="JetBrains Mono" font-size="10" font-weight="400" font-style="normal" 
>
<path vector-effect="none" fill-rule="nonzero" d="M-385.342,281.647 L-373.737,293.252"/>
</g>

<g fill="none" stroke="none" transform="matrix(1.03034,0,0,1.02562,416.367,-269.481)"
font-family="JetBrains Mono" font-size="10" font-weight="400" font-style="normal" 
>
<path vector-effect="none" fill-rule="nonzero" d="M-373.74,281.595 L-385.339,293.249"/>
</g>

<g fill="none" stroke="#eff0f1" stroke-opacity="1" stroke-width="3.33959" stroke-linecap="round" stroke-linejoin="miter" stroke-miterlimit="4" transform="matrix(1.03034,0,0,1.02562,416.367,-269.481)"
font-family="JetBrains Mono" font-size="10" font-weight="400" font-style="normal" 
>
<path vector-effect="none" fill-rule="nonzero" d="M-373.74,281.595 L-385.339,293.249"/>
</g>

<g fill="none" stroke="#000000" stroke-opacity="1" stroke-width="1" stroke-linecap="square" stroke-linejoin="bevel" transform="matrix(1,0,0,1,0,0)"
font-family="JetBrains Mono" font-size="10" font-weight="400" font-style="normal" 
>
</g>
</g>
</svg>
