<?xml version="1.0" encoding="UTF-8" standalone="no"?>
<svg viewBox="0 0 50 50"
 xmlns="http://www.w3.org/2000/svg" xmlns:xlink="http://www.w3.org/1999/xlink"  version="1.2" baseProfile="tiny">
<title>Qt SVG Document</title>
<desc>Generated with Qt</desc>
<defs>
</defs>
<g fill="none" stroke="black" stroke-width="1" fill-rule="evenodd" stroke-linecap="square" stroke-linejoin="bevel" >

<g fill="#000000" fill-opacity="1" stroke="none" transform="matrix(2.5,0,0,2.5,37.9492,45.4947)"
font-family="JetBrains Mono" font-size="10" font-weight="400" font-style="normal" 
opacity="0" >
<rect x="-15.1797" y="-18.1979" width="20" height="20"/>
</g>

<g fill="#7f7f7f" fill-opacity="1" stroke="none" transform="matrix(2.88462,0,0,2.88462,-87.7558,7.45578)"
font-family="JetBrains Mono" font-size="10" font-weight="400" font-style="normal" 
opacity="0.75" >
<path vector-effect="none" fill-rule="nonzero" d="M45,6 C45,9.31371 42.3137,12 39,12 C35.6863,12 33,9.31371 33,6 C33,2.68629 35.6863,6.08718e-16 39,0 C42.3137,-6.08718e-16 45,2.68629 45,6 "/>
</g>

<g fill="none" stroke="none" transform="matrix(2.5,0,0,2.5,37.9492,45.4947)"
font-family="JetBrains Mono" font-size="10" font-weight="400" font-style="normal" 
>
<path vector-effect="none" fill-rule="nonzero" d="M-1.99955,-9.59915 L-5.29306,-6.10042 L-8.44492,-9.45235"/>
</g>

<g fill="none" stroke="#606060" stroke-opacity="1" stroke-width="1.71467" stroke-linecap="round" stroke-linejoin="miter" stroke-miterlimit="4" transform="matrix(2.5,0,0,2.5,37.9492,45.4947)"
font-family="JetBrains Mono" font-size="10" font-weight="400" font-style="normal" 
>
<path vector-effect="none" fill-rule="nonzero" d="M-1.99955,-9.59915 L-5.29306,-6.10042 L-8.44492,-9.45235"/>
</g>

<g fill="none" stroke="#000000" stroke-opacity="1" stroke-width="1" stroke-linecap="square" stroke-linejoin="bevel" transform="matrix(1,0,0,1,0,0)"
font-family="JetBrains Mono" font-size="10" font-weight="400" font-style="normal" 
>
</g>
</g>
</svg>
